<?xml version="1.0" standalone="no"?>
<!DOCTYPE svg PUBLIC "-//W3C//DTD SVG 20010904//EN"
 "http://www.w3.org/TR/2001/REC-SVG-20010904/DTD/svg10.dtd">
<svg version="1.0" xmlns="http://www.w3.org/2000/svg"
 width="548.000000pt" height="548.000000pt" viewBox="0 0 548.000000 548.000000"
 preserveAspectRatio="xMidYMid meet">
<metadata>
Created by potrace 1.14, written by Peter Selinger 2001-2017
</metadata>
<g transform="translate(0.000000,548.000000) scale(0.100000,-0.100000)"
fill="#000000" stroke="none">
<path d="M3135 4864 c-248 -45 -474 -155 -634 -308 -148 -143 -244 -296 -394
-631 -125 -279 -151 -330 -274 -533 -58 -96 -134 -231 -169 -300 -61 -120
-153 -342 -168 -406 -4 -17 -16 -42 -27 -57 -42 -59 -47 -96 -44 -295 2 -104
8 -213 14 -243 6 -29 11 -60 11 -67 0 -7 -55 -43 -122 -80 -467 -256 -674
-399 -697 -480 -15 -56 18 -117 83 -151 43 -23 170 -12 276 22 67 22 101 28
160 26 41 -1 108 5 147 13 86 18 264 75 364 116 75 31 123 38 135 19 26 -43
360 -225 514 -280 49 -17 77 -35 115 -74 28 -29 74 -62 104 -76 l53 -24 -5
-54 c-3 -29 -8 -56 -12 -59 -3 -3 -45 5 -94 17 -70 18 -93 21 -110 12 -33 -18
-42 -44 -25 -75 18 -36 18 -46 0 -46 -8 0 -27 -10 -42 -23 -21 -18 -26 -29
-21 -48 10 -38 44 -52 97 -40 25 5 84 13 131 17 79 6 93 4 157 -20 83 -32 170
-83 223 -131 38 -34 55 -36 85 -13 28 21 22 49 -22 100 -24 28 -42 53 -41 55
3 2 55 -10 134 -33 16 -4 29 1 47 19 25 26 26 45 3 74 -17 23 -167 63 -283 75
l-114 12 0 51 c0 84 5 92 62 98 27 4 80 20 116 36 63 28 77 30 227 35 88 3
200 12 249 20 49 8 102 12 117 9 25 -5 29 -10 29 -38 0 -18 -3 -47 -6 -65 -6
-28 -10 -31 -33 -26 -101 23 -136 19 -153 -19 -7 -16 -20 -25 -33 -25 -72 0
-120 -51 -90 -96 18 -28 6 -26 170 -25 125 2 132 1 193 -28 82 -40 137 -78
199 -140 28 -28 58 -51 65 -51 21 0 58 38 58 60 0 10 -22 44 -49 76 -28 32
-49 60 -47 61 8 9 77 -30 98 -55 48 -58 91 -62 118 -11 25 46 -83 150 -197
188 -38 13 -88 21 -129 21 -64 0 -66 1 -61 23 3 12 9 50 13 84 6 62 7 63 43
73 86 24 249 129 286 186 8 12 47 49 87 81 214 170 396 423 517 718 143 347
192 686 171 1173 -17 403 -66 617 -197 875 -192 376 -522 613 -948 682 -112
19 -324 18 -430 -1z"/>
</g>
</svg>
